<svg version="1.2" xmlns="http://www.w3.org/2000/svg" viewBox="0 0 1959 1980" width="594" height="600">
	<title>Rlogo-ai</title>
	<style>
		.s0 { fill: #ffffff } 
	</style>
	<g id="_Artboards_">
	</g>
	<g id="Layer 1">
		<g id="&lt;Group&gt;">
			<g id="&lt;Group&gt;">
				<path id="&lt;Path&gt;" class="s0" d="m211 1874h67v-660.5l-67-69.6z"/>
				<path id="&lt;Path&gt;" class="s0" d="m406 1340.9l-66-69.7v602.8h66z"/>
				<path id="&lt;Path&gt;" class="s0" d="m465 1398.6v475.4h69v-406.8z"/>
				<path id="&lt;Path&gt;" class="s0" d="m152 1086.1l-67-68.5v856.4h67z"/>
			</g>
			<path id="&lt;Compound Path&gt;" fill-rule="evenodd" class="s0" d="m1265 1874l-1180-1182.4v-599.6h1043.6c374.3 0 678.8 304.9 678.8 679.2 0 181.1-70.4 351.8-198.4 479.9-57.1 57.3-122.6 103.3-193.8 136.5l486 486.4zm-236.5-873l100.5-0.5c126.1-0.2 228.7-102.8 228.7-228.8 0-126.3-102.8-228.7-229.1-228.7h-558.5z"/>
		</g>
	</g>
</svg>